<svg xmlns="http://www.w3.org/2000/svg" xmlns:xlink="http://www.w3.org/1999/xlink"
     viewBox="0 0 1200 640" role="img" aria-labelledby="af-svg-title"
     preserveAspectRatio="xMidYMid meet" width="1200" height="640">
  <title id="af-svg-title">Visdom architecture: Context Fabric, Coding Agent, Testing, Code Review, PR triage and TraceVault.</title>

  <style>
    /* Self-contained version of the page's ArchitectureFlow diagram.
       All CSS variables and color-mix() values are resolved to concrete
       colors (light theme). Ambient animations are pure CSS; the travelling
       knowledge / trace dots use native SMIL animateMotion. */
    text { font-family: 'Geist', system-ui, sans-serif; }

    .af-grid-dot { fill: #9ca3af; opacity: .35; }
    .af-bp { opacity: .5; }
    .af-fid path { stroke: #e5e7eb; stroke-width: 1.25; fill: none; }
    .af-sheen { stroke: rgba(255,255,255,.5); stroke-width: 1; opacity: .5; }

    .af-mhead { fill: #f1f3f5; }
    .af-sandbox-tag { fill: #f1f3f5; stroke: #e5e7eb; stroke-width: 1; }
    .af-sandbox-label { fill: #6b7280; font: 600 9.5px 'Geist Mono', monospace; letter-spacing: .08em; text-transform: uppercase; }
    .af-mhead-label { fill: #111827; font: 600 12px 'Geist Mono', monospace; letter-spacing: .12em; text-transform: uppercase; }
    .af-mhead-icon, .af-vault-icon { fill: none; stroke: #059669; stroke-width: 2; stroke-linecap: round; stroke-linejoin: round; }

    .af-streak { fill: none; stroke: #34d399; stroke-width: 2.5; stroke-linecap: round; stroke-dasharray: 14 86; animation: af-streak 2.4s linear infinite; filter: drop-shadow(0 0 3px #059669); pointer-events: none; }
    .af-streak--pipe { stroke-width: 3; stroke-dasharray: 22 78; }
    .af-streak--soft { stroke-width: 2; stroke-dasharray: 8 92; opacity: .9; }
    @keyframes af-streak { from { stroke-dashoffset: 100; } to { stroke-dashoffset: 0; } }

    .af-card { fill: #ffffff; stroke: #e5e7eb; stroke-width: 1.25; }
    .af-card--risk { stroke: #f59e0b; }
    .af-card-label { fill: #111827; font: 600 16px 'Geist', sans-serif; }
    .af-card-label--risk { fill: #f59e0b; font-weight: 700; font-size: 15px; }
    .af-card-sub { fill: #6b7280; font: 500 12.5px 'Geist', sans-serif; }
    .af-src-icon { fill: none; stroke: #059669; stroke-width: 1.9; stroke-linecap: round; stroke-linejoin: round; }
    .af-fabricbar { stroke: #97cbbe; }

    .af-prenv { fill: rgba(5,150,105,.035); stroke: #afd4cc; stroke-width: 1; stroke-dasharray: 6 6; }
    .af-prenv-icon { fill: none; stroke: #9ca3af; stroke-width: 2; stroke-linecap: round; stroke-linejoin: round; }
    .af-prenv-label { fill: #9ca3af; font: 600 11.5px 'Geist Mono', monospace; letter-spacing: .12em; text-transform: uppercase; }

    .af-wire, .af-trace-path { fill: none; stroke: #a2cfc4; stroke-width: 1.75; }
    .af-trace-path { stroke-dasharray: 3 7; opacity: .6; }
    .af-port { fill: #059669; opacity: .8; }
    .af-pipe { fill: none; stroke: #059669; stroke-width: 2.5; opacity: .85; }
    .af-rail-pre { fill: none; stroke: #059669; stroke-width: 2.5; }
    .af-arrowhead--amber { fill: #f59e0b; }
    .af-rail-label { fill: #111827; font: 600 14px 'Geist', sans-serif; }

    .af-loop-path { fill: none; stroke: rgba(5,150,105,.55); stroke-width: 2; stroke-dasharray: 5 5; }
    .af-loop-label { fill: #047857; font: 600 14px 'Geist', sans-serif; }

    .af-agent-ring { fill: none; stroke: #059669; stroke-width: 2; opacity: .5; transform-box: fill-box; transform-origin: center; animation: af-ring 2.8s ease-out infinite; }
    .af-agent-ticks { fill: none; stroke: #059669; stroke-width: 3; stroke-dasharray: 2 9; opacity: .55; transform-box: fill-box; transform-origin: center; animation: af-rotate 40s linear infinite; }
    .af-agent-core { fill: url(#af-agent-grad); }
    .af-agent-spark { fill: none; stroke: rgba(255,255,255,.9); stroke-width: 1.8; stroke-linejoin: round; }
    .af-agent-label { fill: #ffffff; font: 700 17px 'Geist', sans-serif; }
    @keyframes af-rotate { to { transform: rotate(360deg); } }
    @keyframes af-ring { 0% { opacity: .5; transform: scale(1); } 100% { opacity: 0; transform: scale(1.18); } }

    .af-panel { fill: #f8f9fb; stroke: #e5e7eb; stroke-width: 1.25; }
    .af-chip { fill: #ffffff; stroke: #e5e7eb; stroke-width: 1.25; }
    .af-chip-label { fill: #111827; font: 600 13.5px 'Geist', sans-serif; }

    .af-review-bar { stroke: #b8d7d1; stroke-width: 1.25; animation: af-gate 3.8s ease-in-out infinite; }
    .af-depth-0 .af-review-bar { fill: #f2faf8; animation-delay: 0s; }
    .af-depth-1 .af-review-bar { fill: #e4f3ef; animation-delay: .45s; }
    .af-depth-2 .af-review-bar { fill: #d2ece4; animation-delay: .9s; }
    .af-depth-3 .af-review-bar { fill: #bce3d7; stroke: #059669; animation-delay: 1.35s; }
    @keyframes af-gate { 0%, 24%, 100% { filter: none; } 9% { filter: brightness(1.35) drop-shadow(0 0 5px rgba(5,150,105,.08)); } }
    .af-review-n { fill: #047857; font: 700 12px 'Geist Mono', monospace; }
    .af-review-label { fill: #111827; font: 600 13px 'Geist', sans-serif; }

    .af-pr { fill: #ffffff; stroke: #059669; stroke-width: 1.75; }
    .af-pr-label { fill: #111827; font: 700 15px 'Geist', sans-serif; }
    .af-branch { fill: none; stroke-width: 2; }
    .af-branch--risk { stroke: #f59e0b; }
    .af-human-mark { fill: none; stroke: #f59e0b; stroke-width: 1.6; }
    .af-approved-label { fill: #f59e0b; font: 600 10.5px 'Geist Mono', monospace; letter-spacing: .06em; text-transform: uppercase; }
    .af-autofix-path { fill: none; stroke: rgba(5,150,105,.65); stroke-width: 1.75; stroke-dasharray: 4 6; }
    .af-autofix-label { fill: #059669; font: 600 13px 'Geist', sans-serif; }

    .af-vault { fill: #ecf4f4; stroke: #add3cb; stroke-width: 1.5; }
    .af-vault-label { fill: #111827; font: 700 19px 'Geist', sans-serif; }
    .af-vault-tag { fill: #6b7280; font: 600 11px 'Geist Mono', monospace; letter-spacing: .1em; text-transform: uppercase; }
    .af-vault-mark { fill: #059669; }
    .af-chain-block { fill: rgba(5,150,105,.08); stroke: #80c3b1; stroke-width: 1.25; }
    .af-chain-block--head { fill: #b4e0d2; stroke: #059669; }
    .af-chain-link { stroke: #8bc7b7; stroke-width: 1.5; stroke-dasharray: 2 3; }

    .af-ship-box { fill: #ffffff; stroke: #059669; stroke-width: 1.5; }
    .af-ship-icon { fill: none; stroke: #059669; stroke-width: 1.9; stroke-linecap: round; stroke-linejoin: round; }
    .af-ship-label { fill: #111827; font: 700 17px 'Geist', sans-serif; }
    .af-seal { fill: #ffffff; stroke: #059669; stroke-width: 2; }
    .af-seal-check { fill: none; stroke: #059669; stroke-width: 3.2; stroke-linecap: round; stroke-linejoin: round; }

    .af-conf { transform-box: fill-box; transform-origin: center; animation: af-confetti 2.6s ease-out infinite; opacity: 0; }
    .af-conf--1 { fill: #059669; }
    .af-conf--2 { fill: #f59e0b; }
    .af-conf--3 { fill: #0693e3; }
    .af-conf--4 { fill: #9b51e0; }
    @keyframes af-confetti {
      0% { opacity: 0; transform: translateY(8px) rotate(0deg) scale(.5); }
      18% { opacity: 1; }
      100% { opacity: 0; transform: translateY(-22px) rotate(170deg) scale(1.05); }
    }

    .af-particle--ctx { fill: #34d399; }
    .af-particle--trace { fill: #9ca3af; }

    @media (prefers-reduced-motion: reduce) {
      .af-streak, .af-agent-ring, .af-agent-ticks, .af-review-bar, .af-conf { animation: none; }
      .af-streak, .af-particle { display: none; }
    }
  </style>

  <defs>
    <marker id="af-arrow-amber" viewBox="0 0 12 9" refX="11" refY="4.5" markerWidth="7" markerHeight="5.25" orient="auto-start-reverse">
      <path d="M0,0.5 L12,4.5 L0,8.5 L3.2,4.5 Z" class="af-arrowhead--amber" />
    </marker>
    <radialGradient id="af-agent-grad" cx="38%" cy="32%" r="78%">
      <stop offset="0%" stop-color="#34d399" />
      <stop offset="100%" stop-color="#059669" />
    </radialGradient>
    <pattern id="af-grid" width="26" height="26" patternUnits="userSpaceOnUse">
      <circle cx="1" cy="1" r="1" class="af-grid-dot" />
    </pattern>
  </defs>

  <!-- blueprint substrate -->
  <rect x="36" y="40" width="1128" height="572" fill="url(#af-grid)" class="af-bp" />
  <g class="af-fid">
    <path d="M35,44 H45 M40,39 V49" />
    <path d="M1155,44 H1165 M1160,39 V49" />
    <path d="M35,618 H45 M40,613 V623" />
    <path d="M1155,618 H1165 M1160,613 V623" />
  </g>

  <!-- ============ TRACEVAULT (baseplate) ============ -->
  <g id="af-tracevault">
    <rect x="44" y="538" width="1112" height="68" rx="18" class="af-vault" />
    <line x1="60" y1="539.5" x2="1140" y2="539.5" class="af-sheen" />
    <g class="af-vault-icon" transform="translate(64,562) scale(0.8)">
      <path d="M10 13a5 5 0 0 0 7.5.5l3-3a5 5 0 0 0-7-7l-1.7 1.7" />
      <path d="M14 11a5 5 0 0 0-7.5-.5l-3 3a5 5 0 0 0 7 7l1.7-1.7" />
    </g>
    <text x="94" y="579" class="af-vault-label">TraceVault</text>
    <g class="af-chain">
      <rect x="940" y="565" width="14" height="14" rx="3" class="af-chain-block" />
      <line x1="954" y1="572" x2="968" y2="572" class="af-chain-link" />
      <rect x="968" y="565" width="14" height="14" rx="3" class="af-chain-block" />
      <line x1="982" y1="572" x2="996" y2="572" class="af-chain-link" />
      <rect x="996" y="565" width="14" height="14" rx="3" class="af-chain-block" />
      <line x1="1010" y1="572" x2="1024" y2="572" class="af-chain-link" />
      <rect x="1024" y="565" width="14" height="14" rx="3" class="af-chain-block af-chain-block--head" />
    </g>
    <text x="1132" y="576" text-anchor="end" class="af-vault-tag">Ed25519</text>
    <circle cx="150" cy="538" r="3.5" class="af-vault-mark" />
    <circle cx="369" cy="538" r="3.5" class="af-vault-mark" />
    <circle cx="625" cy="538" r="3.5" class="af-vault-mark" />
    <circle cx="861" cy="538" r="3.5" class="af-vault-mark" />
    <circle cx="1076" cy="538" r="3.5" class="af-vault-mark" />
  </g>

  <!-- trace-drop paths -->
  <path id="af-t0" class="af-trace-path" d="M150,428 L150,538" />
  <path id="af-t1" class="af-trace-path" d="M369,456 L369,538" />
  <path id="af-t2" class="af-trace-path" d="M625,456 L625,538" />
  <path id="af-t3" class="af-trace-path" d="M861,522 L861,538" />
  <path id="af-t4" class="af-trace-path" d="M1076,366 L1076,538" />

  <!-- ============ CONTEXT FABRIC ============ -->
  <g id="af-context">
    <g class="af-src">
      <rect x="44" y="56" width="172" height="42" rx="11" class="af-card" />
      <g class="af-src-icon" transform="translate(58,66) scale(0.85)"><rect x="3" y="3" width="18" height="18" rx="2"/><path d="M8 7v10M12 7v7M16 7v4"/></g>
      <text x="90" y="82" class="af-card-label">Jira</text>
      <path id="af-w0" class="af-wire" d="M130,98 L130,126" />
      <circle cx="130" cy="126" r="2.5" class="af-port" />
    </g>
    <g class="af-src">
      <rect x="232" y="56" width="172" height="42" rx="11" class="af-card" />
      <g class="af-src-icon" transform="translate(246,66) scale(0.85)"><circle cx="12" cy="12" r="3"/><path d="M3 12h6M15 12h6"/></g>
      <text x="278" y="82" class="af-card-label">Git history</text>
      <path id="af-w1" class="af-wire" d="M318,98 L318,126" />
      <circle cx="318" cy="126" r="2.5" class="af-port" />
    </g>
    <g class="af-src">
      <rect x="420" y="56" width="172" height="42" rx="11" class="af-card" />
      <g class="af-src-icon" transform="translate(434,66) scale(0.85)"><path d="M21 15a2 2 0 0 1-2 2H7l-4 4V5a2 2 0 0 1 2-2h14a2 2 0 0 1 2 2z"/></g>
      <text x="466" y="82" class="af-card-label">Discussions</text>
      <path id="af-w2" class="af-wire" d="M506,98 L506,126" />
      <circle cx="506" cy="126" r="2.5" class="af-port" />
    </g>
    <g class="af-src">
      <rect x="608" y="56" width="172" height="42" rx="11" class="af-card" />
      <g class="af-src-icon" transform="translate(622,66) scale(0.85)"><line x1="6" y1="3" x2="6" y2="15"/><circle cx="18" cy="6" r="3"/><circle cx="6" cy="18" r="3"/><path d="M18 9a9 9 0 0 1-9 9"/></g>
      <text x="654" y="82" class="af-card-label">Repositories</text>
      <path id="af-w3" class="af-wire" d="M694,98 L694,126" />
      <circle cx="694" cy="126" r="2.5" class="af-port" />
    </g>
    <g class="af-src">
      <rect x="796" y="56" width="172" height="42" rx="11" class="af-card" />
      <g class="af-src-icon" transform="translate(810,66) scale(0.85)"><path d="M15 2H6a2 2 0 0 0-2 2v16a2 2 0 0 0 2 2h12a2 2 0 0 0 2-2V7z"/><path d="M14 2v5h5"/><path d="M16 13H8M16 17H8M10 9H8"/></g>
      <text x="842" y="82" class="af-card-label">Documentation</text>
      <path id="af-w4" class="af-wire" d="M882,98 L882,126" />
      <circle cx="882" cy="126" r="2.5" class="af-port" />
    </g>
    <g class="af-src">
      <rect x="984" y="56" width="172" height="42" rx="11" class="af-card" />
      <g class="af-src-icon" transform="translate(998,66) scale(0.85)"><path d="M16 21v-2a4 4 0 0 0-4-4H6a4 4 0 0 0-4 4v2"/><circle cx="9" cy="7" r="4"/><path d="M22 21v-2a4 4 0 0 0-3-3.87M16 3.13a4 4 0 0 1 0 7.75"/></g>
      <text x="1030" y="82" class="af-card-label">Org knowledge</text>
      <path id="af-w5" class="af-wire" d="M1070,98 L1070,126" />
      <circle cx="1070" cy="126" r="2.5" class="af-port" />
    </g>
    <rect x="44" y="126" width="1112" height="66" rx="18" class="af-vault af-fabricbar" />
    <line x1="60" y1="127.5" x2="1140" y2="127.5" class="af-sheen" />
    <g class="af-vault-icon" transform="translate(64,149) scale(0.8)"><path d="M12 2 2 7l10 5 10-5-10-5z"/><path d="m2 17 10 5 10-5"/><path d="m2 12 10 5 10-5"/></g>
    <text x="94" y="166" class="af-vault-label">Context Fabric</text>
    <text x="1132" y="163" text-anchor="end" class="af-vault-tag">queried by every stage</text>
  </g>

  <!-- ============ PREFLIGHT RAIL ============ -->
  <g id="af-preflight">
    <path id="af-prerail" class="af-rail-pre" d="M64,192 L64,312 Q64,330 92,330" />
    <path class="af-streak" pathLength="100" d="M64,192 L64,312 Q64,330 92,330" style="animation-duration:2.6s" />
    <text x="84" y="230" class="af-rail-label">Preflight</text>
    <text x="84" y="246" class="af-rail-label">context</text>
  </g>

  <!-- ============ ACTIVE CONTEXT LOOP ============ -->
  <g id="af-loop">
    <path id="af-answer" class="af-loop-path" d="M160,192 C 168,216 168,244 161,273" />
    <path id="af-query" class="af-loop-path" d="M177,275 C 186,248 186,214 182,192" />
    <path class="af-streak" pathLength="100" d="M160,192 C 168,216 168,244 161,273" style="animation-duration:1.8s" />
    <path class="af-streak" pathLength="100" d="M177,275 C 186,248 186,214 182,192" style="animation-duration:1.8s;animation-delay:-0.9s" />
    <text x="208" y="224" class="af-loop-label">Active</text>
    <text x="208" y="242" class="af-loop-label">context</text>
  </g>

  <!-- ============ CODING AGENT ============ -->
  <g id="af-agent">
    <circle cx="150" cy="330" r="58" class="af-agent-ring" />
    <circle cx="150" cy="330" r="51" class="af-agent-ticks" />
    <circle cx="150" cy="330" r="44" class="af-agent-core" />
    <g class="af-agent-spark" transform="translate(142,298) scale(0.68)"><path d="M12 3l1.9 5.8a2 2 0 0 0 1.3 1.3L21 12l-5.8 1.9a2 2 0 0 0-1.3 1.3L12 21l-1.9-5.8a2 2 0 0 0-1.3-1.3L3 12l5.8-1.9a2 2 0 0 0 1.3-1.3L12 3z"/></g>
    <text x="150" y="334" text-anchor="middle" class="af-agent-label">Coding</text>
    <text x="150" y="354" text-anchor="middle" class="af-agent-label">Agent</text>
    <rect x="116" y="396" width="68" height="32" rx="10" class="af-sandbox-tag" />
    <text x="150" y="409" text-anchor="middle" class="af-sandbox-label">Sandcat</text>
    <text x="150" y="421" text-anchor="middle" class="af-sandbox-label">sandbox</text>
  </g>

  <!-- pipeline connectors -->
  <g id="af-c1g">
    <path id="af-c1" class="af-pipe" d="M212,312 L274,312" />
    <path class="af-streak af-streak--pipe" pathLength="100" d="M212,312 L274,312" style="animation-duration:2.4s" />
  </g>
  <g id="af-c2g">
    <path id="af-c2" class="af-pipe" d="M464,312 L524,312" />
    <path class="af-streak af-streak--pipe" pathLength="100" d="M464,312 L524,312" style="animation-duration:2.4s;animation-delay:0.6s" />
  </g>
  <g id="af-c3g">
    <path id="af-c3" class="af-pipe" d="M726,312 L786,312" />
    <path class="af-streak af-streak--pipe" pathLength="100" d="M726,312 L786,312" style="animation-duration:2.4s;animation-delay:1.2s" />
  </g>
  <g id="af-c4g">
    <path id="af-c4" class="af-pipe" d="M936,312 L996,312" />
    <path class="af-streak af-streak--pipe" pathLength="100" d="M936,312 L996,312" style="animation-duration:2.4s;animation-delay:1.8s" />
  </g>

  <!-- ============ TESTING ============ -->
  <g id="af-testing">
    <rect x="274" y="244" width="190" height="206" rx="16" class="af-panel" />
    <line x1="290" y1="245.5" x2="448" y2="245.5" class="af-sheen" />
    <rect x="280" y="250" width="178" height="26" rx="8" class="af-mhead" />
    <g class="af-mhead-icon" transform="translate(290,255) scale(0.66)"><path d="M9 3h6M10 3v5L5 16a3 3 0 0 0 2.6 4.5h8.8A3 3 0 0 0 19 16l-5-8V3"/><path d="M7.5 14h9"/></g>
    <text x="312" y="268" class="af-mhead-label">Testing</text>
    <g class="af-test-row">
      <rect x="286" y="284" width="166" height="34" rx="8" class="af-chip" />
      <text x="369" y="306" text-anchor="middle" class="af-chip-label">Classic tests</text>
    </g>
    <g class="af-test-row">
      <rect x="286" y="324" width="166" height="34" rx="8" class="af-chip" />
      <text x="369" y="346" text-anchor="middle" class="af-chip-label">Architecture testing</text>
    </g>
    <g class="af-test-row">
      <rect x="286" y="364" width="166" height="34" rx="8" class="af-chip" />
      <text x="369" y="386" text-anchor="middle" class="af-chip-label">Property-based</text>
    </g>
    <g class="af-test-row">
      <rect x="286" y="404" width="166" height="34" rx="8" class="af-chip" />
      <text x="369" y="426" text-anchor="middle" class="af-chip-label">Mutation testing</text>
    </g>
  </g>

  <!-- code review taps the fabric -->
  <g id="af-tap-review">
    <path id="af-tapr" class="af-trace-path" d="M665,192 L665,244" />
  </g>

  <!-- the pull request envelope -->
  <g id="af-pr-env">
    <rect x="508" y="214" width="444" height="248" rx="20" class="af-prenv" />
    <g class="af-prenv-icon" transform="translate(812,221) scale(0.6)"><circle cx="6" cy="6" r="3"/><circle cx="6" cy="18" r="3"/><circle cx="18" cy="18" r="3"/><path d="M6 9v6"/><path d="M13 6h2a3 3 0 0 1 3 3v6"/></g>
    <text x="936" y="234" text-anchor="end" class="af-prenv-label">Pull Request</text>
  </g>

  <!-- ============ CODE REVIEW ============ -->
  <g id="af-review">
    <rect x="524" y="244" width="202" height="206" rx="16" class="af-panel" />
    <line x1="540" y1="245.5" x2="710" y2="245.5" class="af-sheen" />
    <rect x="530" y="250" width="190" height="26" rx="8" class="af-mhead" />
    <g class="af-mhead-icon" transform="translate(540,255) scale(0.66)"><path d="M2 12s3.5-6 10-6 10 6 10 6-3.5 6-10 6-10-6-10-6z"/><circle cx="12" cy="12" r="3"/></g>
    <text x="562" y="268" class="af-mhead-label">Code review &#183; VCR</text>
    <g class="af-review-row af-depth-0">
      <rect x="536" y="284" width="178" height="34" rx="8" class="af-review-bar" />
      <text x="549" y="306" class="af-review-n">L1</text>
      <text x="572" y="306" class="af-review-label">Linting review</text>
    </g>
    <g class="af-review-row af-depth-1">
      <rect x="536" y="324" width="178" height="34" rx="8" class="af-review-bar" />
      <text x="549" y="346" class="af-review-n">L2</text>
      <text x="572" y="346" class="af-review-label">Deterministic review</text>
    </g>
    <g class="af-review-row af-depth-2">
      <rect x="536" y="364" width="178" height="34" rx="8" class="af-review-bar" />
      <text x="549" y="386" class="af-review-n">L3</text>
      <text x="572" y="386" class="af-review-label">Single-pass LLM</text>
    </g>
    <g class="af-review-row af-depth-3">
      <rect x="536" y="404" width="178" height="34" rx="8" class="af-review-bar" />
      <text x="549" y="426" class="af-review-n">L4</text>
      <text x="572" y="426" class="af-review-label">Deep LLM review</text>
    </g>
  </g>

  <!-- ============ TRIAGE ============ -->
  <g id="af-triage">
    <rect x="786" y="244" width="150" height="104" rx="16" class="af-panel" />
    <line x1="802" y1="245.5" x2="920" y2="245.5" class="af-sheen" />
    <rect x="792" y="250" width="138" height="26" rx="8" class="af-mhead" />
    <g class="af-mhead-icon" transform="translate(802,255) scale(0.66)"><path d="M22 3H2l8 9.46V19l4 2v-8.54L22 3z"/></g>
    <text x="824" y="268" class="af-mhead-label">Triage</text>

    <rect x="798" y="291" width="126" height="42" rx="10" class="af-pr" />
    <text x="861" y="317" text-anchor="middle" class="af-pr-label">Risk gate</text>

    <path class="af-branch af-branch--risk" d="M861,350 L861,464" marker-end="url(#af-arrow-amber)" />
    <g class="af-triage-node af-triage-node--green">
      <path id="af-autofix" class="af-autofix-path" d="M840,350 C 840,440 790,498 700,498 L320,498 C 252,498 206,442 194,369" />
      <path class="af-streak af-streak--soft" pathLength="100" d="M840,350 C 840,440 790,498 700,498 L320,498 C 252,498 206,442 194,369" style="animation-duration:3.6s" />
      <text x="470" y="488" text-anchor="middle" class="af-autofix-label">green &#183; trivial: auto-fix &#8594; back to agent</text>
    </g>
    <g class="af-triage-node af-triage-node--risk">
      <rect x="784" y="470" width="154" height="46" rx="10" class="af-card af-card--risk" />
      <text x="824" y="490" class="af-card-label af-card-label--risk">High-risk</text>
      <text x="824" y="507" class="af-card-sub">human approval</text>
      <g class="af-human" transform="translate(804,488)">
        <circle cx="0" cy="-4" r="5" class="af-human-mark" />
        <path d="M-8,10 a8,9 0 0 1 16,0" class="af-human-mark" />
      </g>
      <g id="af-approved">
        <path class="af-branch af-branch--risk" d="M938,493 L1022,493 Q1038,493 1038,477 L1038,368" marker-end="url(#af-arrow-amber)" />
        <text x="948" y="485" class="af-approved-label">approved</text>
      </g>
    </g>
  </g>

  <!-- ============ SHIP TO PRODUCTION ============ -->
  <g id="af-ship">
    <rect x="996" y="264" width="160" height="96" rx="16" class="af-ship-box" />
    <line x1="1012" y1="265.5" x2="1140" y2="265.5" class="af-sheen" />
    <g class="af-ship-icon" transform="translate(1014,299) scale(1.15)"><path d="M4.5 16.5c-1.5 1.26-2 5-2 5s3.74-.5 5-2c.71-.84.7-2.13-.09-2.91a2.18 2.18 0 0 0-2.91-.09z"/><path d="m12 15-3-3a22 22 0 0 1 2-3.95A12.88 12.88 0 0 1 22 2c0 2.72-.78 7.5-6 11a22.35 22.35 0 0 1-4 2z"/><path d="M9 12H4s.55-3.03 2-4c1.62-1.08 5 0 5 0"/><path d="M12 15v5s3.03-.55 4-2c1.08-1.62 0-5 0-5"/></g>
    <text x="1052" y="318" class="af-ship-label">Production</text>
    <circle cx="1148" cy="272" r="11" class="af-seal" />
    <g class="af-seal-check" transform="translate(1140,264) scale(0.66)"><path d="M20 6 9 17l-5-5"/></g>
    <g class="af-confetti">
      <rect x="1004" y="250" width="6" height="6" rx="1.8" class="af-conf af-conf--1" style="animation-delay:0s" />
      <rect x="1028" y="244" width="6" height="6" rx="1.8" class="af-conf af-conf--2" style="animation-delay:0.3s" />
      <rect x="1052" y="248" width="6" height="6" rx="1.8" class="af-conf af-conf--3" style="animation-delay:0.6s" />
      <rect x="1078" y="242" width="6" height="6" rx="1.8" class="af-conf af-conf--4" style="animation-delay:0.15s" />
      <rect x="1102" y="249" width="6" height="6" rx="1.8" class="af-conf af-conf--1" style="animation-delay:0.45s" />
      <rect x="988" y="268" width="6" height="6" rx="1.8" class="af-conf af-conf--3" style="animation-delay:0.7s" />
      <rect x="1162" y="296" width="6" height="6" rx="1.8" class="af-conf af-conf--2" style="animation-delay:0.2s" />
      <rect x="1016" y="236" width="6" height="6" rx="1.8" class="af-conf af-conf--4" style="animation-delay:0.55s" />
      <rect x="1086" y="232" width="6" height="6" rx="1.8" class="af-conf af-conf--2" style="animation-delay:0.85s" />
      <rect x="1146" y="246" width="6" height="6" rx="1.8" class="af-conf af-conf--1" style="animation-delay:1s" />
      <rect x="1064" y="254" width="6" height="6" rx="1.8" class="af-conf af-conf--1" style="animation-delay:1.2s" />
      <rect x="1124" y="250" width="6" height="6" rx="1.8" class="af-conf af-conf--3" style="animation-delay:0.95s" />
    </g>
  </g>

  <!-- ============ AMBIENT PARTICLES (native SMIL animateMotion) ============ -->
  <g class="af-particles">
    <!-- knowledge drops: each source into the fabric bar -->
    <circle class="af-particle af-particle--ctx" r="3.2" cx="0" cy="0" opacity="0">
      <animateMotion dur="2.6s" begin="0s" repeatCount="indefinite" keyPoints="0;1;1" keyTimes="0;0.385;1" calcMode="linear"><mpath xlink:href="#af-w0"/></animateMotion>
      <animate attributeName="opacity" dur="2.6s" begin="0s" repeatCount="indefinite" values="0;1;1;0;0" keyTimes="0;0.077;0.288;0.385;1"/>
    </circle>
    <circle class="af-particle af-particle--ctx" r="3.2" cx="0" cy="0" opacity="0">
      <animateMotion dur="2.6s" begin="0.4s" repeatCount="indefinite" keyPoints="0;1;1" keyTimes="0;0.385;1" calcMode="linear"><mpath xlink:href="#af-w1"/></animateMotion>
      <animate attributeName="opacity" dur="2.6s" begin="0.4s" repeatCount="indefinite" values="0;1;1;0;0" keyTimes="0;0.077;0.288;0.385;1"/>
    </circle>
    <circle class="af-particle af-particle--ctx" r="3.2" cx="0" cy="0" opacity="0">
      <animateMotion dur="2.6s" begin="0.8s" repeatCount="indefinite" keyPoints="0;1;1" keyTimes="0;0.385;1" calcMode="linear"><mpath xlink:href="#af-w2"/></animateMotion>
      <animate attributeName="opacity" dur="2.6s" begin="0.8s" repeatCount="indefinite" values="0;1;1;0;0" keyTimes="0;0.077;0.288;0.385;1"/>
    </circle>
    <circle class="af-particle af-particle--ctx" r="3.2" cx="0" cy="0" opacity="0">
      <animateMotion dur="2.6s" begin="1.2s" repeatCount="indefinite" keyPoints="0;1;1" keyTimes="0;0.385;1" calcMode="linear"><mpath xlink:href="#af-w3"/></animateMotion>
      <animate attributeName="opacity" dur="2.6s" begin="1.2s" repeatCount="indefinite" values="0;1;1;0;0" keyTimes="0;0.077;0.288;0.385;1"/>
    </circle>
    <circle class="af-particle af-particle--ctx" r="3.2" cx="0" cy="0" opacity="0">
      <animateMotion dur="2.6s" begin="1.6s" repeatCount="indefinite" keyPoints="0;1;1" keyTimes="0;0.385;1" calcMode="linear"><mpath xlink:href="#af-w4"/></animateMotion>
      <animate attributeName="opacity" dur="2.6s" begin="1.6s" repeatCount="indefinite" values="0;1;1;0;0" keyTimes="0;0.077;0.288;0.385;1"/>
    </circle>
    <circle class="af-particle af-particle--ctx" r="3.2" cx="0" cy="0" opacity="0">
      <animateMotion dur="2.6s" begin="2s" repeatCount="indefinite" keyPoints="0;1;1" keyTimes="0;0.385;1" calcMode="linear"><mpath xlink:href="#af-w5"/></animateMotion>
      <animate attributeName="opacity" dur="2.6s" begin="2s" repeatCount="indefinite" values="0;1;1;0;0" keyTimes="0;0.077;0.288;0.385;1"/>
    </circle>

    <!-- code review taps the fabric for conventions and ownership -->
    <circle class="af-particle af-particle--ctx" r="3.2" cx="0" cy="0" opacity="0">
      <animateMotion dur="2.6s" begin="0.2s" repeatCount="indefinite" keyPoints="0;1;1" keyTimes="0;0.423;1" calcMode="linear"><mpath xlink:href="#af-tapr"/></animateMotion>
      <animate attributeName="opacity" dur="2.6s" begin="0.2s" repeatCount="indefinite" values="0;1;1;0;0" keyTimes="0;0.077;0.327;0.423;1"/>
    </circle>
    <circle class="af-particle af-particle--ctx" r="3.2" cx="0" cy="0" opacity="0">
      <animateMotion dur="2.6s" begin="1.6s" repeatCount="indefinite" keyPoints="0;1;1" keyTimes="0;0.423;1" calcMode="linear"><mpath xlink:href="#af-tapr"/></animateMotion>
      <animate attributeName="opacity" dur="2.6s" begin="1.6s" repeatCount="indefinite" values="0;1;1;0;0" keyTimes="0;0.077;0.327;0.423;1"/>
    </circle>

    <!-- traces drop into the vault -->
    <circle class="af-particle af-particle--trace" r="2.4" cx="0" cy="0" opacity="0">
      <animateMotion dur="3s" begin="0s" repeatCount="indefinite" keyPoints="0;1;1" keyTimes="0;0.4;1" calcMode="linear"><mpath xlink:href="#af-t0"/></animateMotion>
      <animate attributeName="opacity" dur="3s" begin="0s" repeatCount="indefinite" values="0;1;1;0;0" keyTimes="0;0.067;0.317;0.4;1"/>
    </circle>
    <circle class="af-particle af-particle--trace" r="2.4" cx="0" cy="0" opacity="0">
      <animateMotion dur="2.5s" begin="0.5s" repeatCount="indefinite" keyPoints="0;1;1" keyTimes="0;0.28;1" calcMode="linear"><mpath xlink:href="#af-t1"/></animateMotion>
      <animate attributeName="opacity" dur="2.5s" begin="0.5s" repeatCount="indefinite" values="0;1;1;0;0" keyTimes="0;0.08;0.18;0.28;1"/>
    </circle>
    <circle class="af-particle af-particle--trace" r="2.4" cx="0" cy="0" opacity="0">
      <animateMotion dur="2.5s" begin="1s" repeatCount="indefinite" keyPoints="0;1;1" keyTimes="0;0.28;1" calcMode="linear"><mpath xlink:href="#af-t2"/></animateMotion>
      <animate attributeName="opacity" dur="2.5s" begin="1s" repeatCount="indefinite" values="0;1;1;0;0" keyTimes="0;0.08;0.18;0.28;1"/>
    </circle>
    <circle class="af-particle af-particle--trace" r="2.4" cx="0" cy="0" opacity="0">
      <animateMotion dur="2.5s" begin="1.5s" repeatCount="indefinite" keyPoints="0;1;1" keyTimes="0;0.28;1" calcMode="linear"><mpath xlink:href="#af-t3"/></animateMotion>
      <animate attributeName="opacity" dur="2.5s" begin="1.5s" repeatCount="indefinite" values="0;1;1;0;0" keyTimes="0;0.08;0.18;0.28;1"/>
    </circle>
    <circle class="af-particle af-particle--trace" r="2.4" cx="0" cy="0" opacity="0">
      <animateMotion dur="3.4s" begin="0.4s" repeatCount="indefinite" keyPoints="0;1;1" keyTimes="0;0.412;1" calcMode="linear"><mpath xlink:href="#af-t4"/></animateMotion>
      <animate attributeName="opacity" dur="3.4s" begin="0.4s" repeatCount="indefinite" values="0;1;1;0;0" keyTimes="0;0.059;0.338;0.412;1"/>
    </circle>
  </g>
</svg>
