<svg xmlns="http://www.w3.org/2000/svg" width="229" height="32" viewBox="0 0 229 32" fill="none">
  <mask id="mask0_264_4019" style="mask-type:luminance" maskUnits="userSpaceOnUse" x="0" y="0"
    width="30" height="30">
    <path d="M29.265 0.276611H0V29.5416H29.265V0.276611Z" fill="white" />
  </mask>
  <g mask="url(#mask0_264_4019)">
    <mask id="mask1_264_4019" style="mask-type:luminance" maskUnits="userSpaceOnUse" x="0" y="0"
      width="30" height="30">
      <path d="M29.265 0.277344H0V29.5423H29.265V0.277344Z" fill="white" />
    </mask>
    <g mask="url(#mask1_264_4019)">
      <path
        d="M11.7892 8.35828L15.335 9.3042L12.9201 0.277344L8.83057 1.37809L10.2863 6.85159C10.4807 7.58605 11.0566 8.1638 11.7892 8.35828Z"
        fill="#F34E3F" />
      <path
        d="M5.79448 26.7435L13.5299 19.0232L16.345 29.5416L20.4345 28.4409L16.3601 13.1683L1.08753 9.09766L0 13.2099L10.509 16.0194L2.80566 23.7283L5.79448 26.7435Z"
        fill="#F34E3F" />
      <path
        d="M20.2173 14.1907L21.167 17.7516C21.3634 18.486 21.9393 19.0619 22.67 19.2564L28.1755 20.7196L29.2631 16.6075L20.2173 14.1907Z"
        fill="#F34E3F" />
      <path
        d="M23.4685 3.07349L19.9492 6.58906C19.5602 6.978 19.3394 7.49345 19.3242 8.04476L19.2676 10.2746L21.3294 10.3463C21.3029 10.3463 21.3558 10.3463 21.3294 10.3463C21.8938 10.3463 22.4244 10.1254 22.8228 9.72702L26.4573 6.08872L23.4685 3.07349Z"
        fill="#F34E3F" />
    </g>
  </g>
  <path
    d="M49.8952 14.0956C48.6458 13.5716 47.0831 13.1332 45.2071 12.7826C43.9272 12.5157 42.9682 12.2794 42.3282 12.0736C41.6882 11.8678 41.2145 11.6048 40.9049 11.2865C40.5955 10.9682 40.4408 10.5299 40.4408 9.97527C40.4408 9.31586 40.6202 8.807 40.9814 8.4468C41.3425 8.0866 41.8335 7.83502 42.4523 7.69019C43.0713 7.54725 43.845 7.47483 44.7734 7.47483C45.8872 7.47483 46.9971 7.60824 48.1013 7.87696C49.2056 8.14568 50.3957 8.56686 51.6757 9.14242L52.3557 5.31362C51.2 4.75711 49.9887 4.34545 48.7183 4.07864C47.4499 3.81182 46.1337 3.67651 44.7734 3.67651C43.1439 3.67651 41.6576 3.92808 40.3165 4.43312C38.9754 4.93818 37.9019 5.6681 37.0976 6.62483C36.2933 7.58156 35.8902 8.74982 35.8902 10.1296C35.8902 11.3437 36.1996 12.3633 36.8186 13.1866C37.4376 14.0099 38.345 14.6731 39.5428 15.1782C40.7388 15.6832 42.267 16.0987 44.124 16.4284C45.444 16.6971 46.4335 16.9372 47.0945 17.1545C47.7555 17.3699 48.2713 17.669 48.6419 18.0502C49.0126 18.4315 49.1999 18.9823 49.1999 19.7026C49.1999 20.362 48.9877 20.8804 48.5656 21.2615C48.1433 21.6427 47.5855 21.9 46.8939 22.0334C46.2024 22.1668 45.3714 22.2336 44.4028 22.2336C43.0617 22.2336 41.5908 22.0582 39.9937 21.7095C38.3947 21.3607 37.0173 20.8861 35.8616 20.2896L35.4585 24.0879C36.5722 24.7264 37.9076 25.2105 39.4664 25.5382C41.0234 25.868 42.6892 26.0319 44.464 26.0319C46.2387 26.0319 47.7021 25.7803 49.1062 25.2753C50.5084 24.7721 51.6278 24.0308 52.4647 23.0531C53.2995 22.0754 53.7178 20.8861 53.7178 19.4873C53.7178 18.1913 53.3931 17.0993 52.7435 16.215C52.094 15.3307 51.1446 14.6256 49.897 14.0995L49.8952 14.0956Z"
    fill="black" />
  <path
    d="M69.1611 9.49426C67.738 8.74338 66.1485 8.36792 64.3948 8.36792C62.6411 8.36792 61 8.74338 59.5979 9.49426C58.1938 10.2452 57.0952 11.2953 56.3024 12.6427C55.5077 13.992 55.1104 15.5091 55.1104 17.1976C55.1104 18.8862 55.502 20.367 56.2871 21.705C57.0704 23.0429 58.1689 24.0986 59.5826 24.8705C60.9963 25.6424 62.5991 26.0293 64.3948 26.0293C66.1906 26.0293 67.738 25.6424 69.1611 24.8705C70.5844 24.0986 71.6943 23.039 72.489 21.6897C73.2837 20.3422 73.6811 18.8347 73.6811 17.1671C73.6811 15.4995 73.2837 13.9672 72.489 12.6294C71.6943 11.2915 70.5864 10.2471 69.1611 9.49617V9.49426ZM68.8823 19.8829C68.4486 20.6662 67.8393 21.278 67.056 21.7201C66.2708 22.1623 65.3939 22.3834 64.4254 22.3834C63.4568 22.3834 62.517 22.1623 61.7337 21.7201C60.9485 21.278 60.3296 20.6605 59.8768 19.8676C59.4221 19.0749 59.1966 18.1638 59.1966 17.1347C59.1966 16.1055 59.424 15.2098 59.8768 14.4495C60.3314 13.689 60.9504 13.0906 61.7337 12.6579C62.517 12.2253 63.4052 12.01 64.3948 12.01C65.3843 12.01 66.2727 12.2253 67.056 12.6579C67.8393 13.0906 68.4486 13.6985 68.8823 14.4799C69.316 15.2632 69.5318 16.1684 69.5318 17.1976C69.5318 18.2267 69.316 19.1016 68.8823 19.8829Z"
    fill="black" />
  <path
    d="M88.1314 18.7839C88.053 18.9897 87.9671 19.1917 87.8677 19.3899C87.4246 20.2742 86.8094 20.9756 86.0262 21.4901C85.2409 22.0048 84.3661 22.262 83.3955 22.262C82.1157 22.262 81.1623 21.9171 80.5339 21.2272C79.9033 20.5372 79.5902 19.5558 79.5902 18.2788V8.70776H75.4751V18.8963C75.4751 20.3371 75.7637 21.5931 76.3424 22.6623C76.9194 23.7333 77.7237 24.5567 78.7572 25.1321C79.7888 25.7077 80.9751 25.9974 82.3161 25.9974C84.3374 25.9974 85.9383 25.4829 87.1132 24.4537C87.499 24.1163 87.8353 23.7467 88.1353 23.3464V25.6582H92.2502V8.70776H88.1353V18.7839H88.1314Z"
    fill="black" />
  <path
    d="M103.636 8.39917C101.697 8.39917 100.241 9.03761 99.2725 10.3126C99.0432 10.6156 98.8369 10.953 98.6535 11.3246V8.7079H94.5366V25.6583H98.6535V18.6811C98.6535 16.7886 99.0604 15.2696 99.8762 14.128C100.69 12.9865 101.8 12.4147 103.202 12.4147H104.224C104.43 12.4357 104.616 12.4452 104.782 12.4452H105.277L105.741 8.61642C105.019 8.47349 104.318 8.40108 103.636 8.40108V8.39917Z"
    fill="black" />
  <path
    d="M112.441 12.6122C113.236 12.191 114.137 11.9795 115.15 11.9795C115.975 11.9795 116.749 12.1033 117.471 12.3492C118.193 12.597 118.925 12.9972 119.668 13.5537L121.37 10.4967C120.359 9.75537 119.328 9.21602 118.275 8.87678C117.223 8.53755 116.067 8.36792 114.81 8.36792C113.138 8.36792 111.612 8.73385 110.229 9.46378C108.846 10.1937 107.753 11.2343 106.949 12.5817C106.144 13.9311 105.741 15.469 105.741 17.1976C105.741 18.9263 106.133 20.4548 106.918 21.783C107.701 23.1114 108.79 24.1406 110.183 24.8705C111.576 25.6004 113.108 25.9664 114.779 25.9664C116.057 25.9664 117.198 25.8063 118.199 25.4879C119.2 25.1697 120.256 24.638 121.37 23.8985L119.729 20.9044C118.986 21.3981 118.239 21.7736 117.484 22.0308C116.732 22.2881 115.962 22.4177 115.178 22.4177C114.168 22.4177 113.261 22.2118 112.454 21.8001C111.65 21.3886 111.016 20.7863 110.552 19.9935C110.087 19.2006 109.854 18.2705 109.854 17.1995C109.854 16.1285 110.085 15.1774 110.552 14.4056C111.016 13.6337 111.644 13.0372 112.439 12.6141L112.441 12.6122Z"
    fill="black" />
  <path
    d="M134.678 9.37113C133.419 8.72315 132.035 8.39917 130.53 8.39917C128.734 8.39917 127.151 8.77461 125.779 9.52551C124.407 10.2764 123.349 11.3208 122.606 12.6587C121.863 13.9966 121.492 15.5098 121.492 17.1964C121.492 18.8831 121.884 20.3411 122.669 21.6885C123.452 23.0378 124.556 24.0917 125.98 24.854C127.403 25.6165 129.002 25.9957 130.777 25.9957C132.014 25.9957 133.119 25.8661 134.087 25.6088C135.058 25.3516 135.984 24.9246 136.873 24.3281L135.82 20.9624C135.159 21.437 134.397 21.8009 133.529 22.0582C132.662 22.3155 131.816 22.4451 130.992 22.4451C129.879 22.4451 128.92 22.2451 128.114 21.8428C127.309 21.4407 126.69 20.85 126.257 20.0667C126.02 19.6397 125.85 19.1537 125.743 18.6163H138.202C138.345 18.2047 138.466 17.7663 138.558 17.3031C138.651 16.8401 138.697 16.3522 138.697 15.8375C138.697 14.4387 138.342 13.1714 137.629 12.0393C136.917 10.9072 135.933 10.0172 134.674 9.36923L134.678 9.37113ZM126.182 14.3892C126.564 13.6078 127.12 13.0056 127.854 12.5825C128.585 12.1613 129.459 11.9497 130.469 11.9497C131.376 11.9497 132.16 12.1308 132.821 12.4891C133.482 12.8493 133.965 13.4001 134.275 14.1414C134.456 14.5741 134.561 15.0695 134.594 15.6241H125.764C125.859 15.1802 125.997 14.7665 126.182 14.3892Z"
    fill="black" />
  <path
    d="M154.329 11.0227C153.65 10.1384 152.792 9.47522 151.761 9.03115C150.729 8.589 149.513 8.36792 148.107 8.36792C146.581 8.36792 145.213 8.72813 144.009 9.44853C142.801 10.1689 141.851 11.1676 141.162 12.4426C140.47 13.7195 140.124 15.1489 140.124 16.7345C140.124 18.3202 140.47 19.6638 141.162 20.8873C141.853 22.1128 142.812 23.079 144.041 23.7898C145.268 24.5008 146.645 24.8553 148.173 24.8553C149.535 24.8553 150.727 24.6399 151.747 24.2072C152.77 23.7747 153.61 23.1172 154.269 22.2309V23.0333C154.269 24.556 153.778 25.7605 152.797 26.6448C151.818 27.5291 150.461 27.9732 148.729 27.9732C147.594 27.9732 146.489 27.8036 145.418 27.4643C144.344 27.1251 143.385 26.6562 142.539 26.0598L140.931 28.9623C142.044 29.7228 143.298 30.3059 144.69 30.7062C146.083 31.1082 147.584 31.3083 149.193 31.3083C152.081 31.3083 154.342 30.5366 155.971 28.9928C157.6 27.4491 158.416 25.2993 158.416 22.5396V8.70716H154.332V11.0227H154.329ZM153.632 19.3435C153.19 20.0945 152.586 20.6719 151.822 21.0722C151.057 21.4743 150.171 21.6744 149.161 21.6744C148.233 21.6744 147.391 21.4629 146.638 21.0417C145.885 20.6205 145.291 20.0278 144.86 19.2655C144.426 18.505 144.21 17.6607 144.21 16.7345C144.21 15.8082 144.426 14.8973 144.86 14.1254C145.294 13.3536 145.885 12.7513 146.638 12.3187C147.391 11.8861 148.233 11.6707 149.161 11.6707C150.171 11.6707 151.06 11.8708 151.822 12.273C152.583 12.6751 153.187 13.2564 153.632 14.0168C154.076 14.7791 154.297 15.6634 154.297 16.6717C154.297 17.6798 154.076 18.5908 153.632 19.3417V19.3435Z"
    fill="black" />
  <path
    d="M165.501 10.3124C165.272 10.6154 165.066 10.9528 164.882 11.3244V8.70772H160.765V25.6582H164.882V18.6809C164.882 16.7885 165.29 15.2694 166.105 14.1279C166.919 12.9863 168.029 12.4146 169.432 12.4146H170.453C170.659 12.4355 170.845 12.4451 171.011 12.4451H171.506L171.969 8.61624C171.247 8.4733 170.546 8.40088 169.864 8.40088C167.926 8.40088 166.469 9.03932 165.501 10.3143V10.3124Z"
    fill="black" />
  <path
    d="M186.003 10.2356C184.672 8.99113 182.656 8.36792 179.954 8.36792C177.89 8.36792 175.815 8.70716 173.733 9.38754L174.227 12.9991C174.99 12.6694 175.827 12.4178 176.734 12.2425C177.641 12.0671 178.569 11.9795 179.52 11.9795C180.964 11.9795 182.053 12.2577 182.784 12.8123C183.516 13.3688 183.883 14.1921 183.883 15.2823V15.4118C183.211 15.3528 182.479 15.2975 181.686 15.2499C180.654 15.1889 179.644 15.1565 178.652 15.1565C176.424 15.1565 174.773 15.6616 173.7 16.6697C172.627 17.6778 172.092 18.9758 172.092 20.5595C172.092 21.6097 172.329 22.5453 172.804 23.3687C173.278 24.1921 173.966 24.8362 174.862 25.2973C175.76 25.7605 176.796 25.993 177.973 25.993C179.148 25.993 180.16 25.8234 181.067 25.4842C181.974 25.145 182.707 24.7028 183.264 24.1558C183.5 23.9233 183.705 23.687 183.883 23.4469V25.6538H188V15.5586C188 13.2545 187.335 11.4782 186.003 10.2318V10.2356ZM181.903 21.905C181.224 22.2861 180.366 22.4767 179.335 22.4767C178.302 22.4767 177.431 22.2977 176.843 21.9355C176.254 21.5753 175.961 21.0455 175.961 20.3461C175.961 19.6047 176.259 19.0387 176.858 18.648C177.456 18.2573 178.467 18.061 179.893 18.061C180.676 18.061 181.388 18.0762 182.028 18.1066C182.656 18.1373 183.273 18.1925 183.883 18.2725C183.868 19.0481 183.71 19.7438 183.406 20.3594C183.086 21.0074 182.586 21.5219 181.903 21.9031V21.905Z"
    fill="black" />
  <path
    d="M204.387 9.50951C203.119 8.74908 201.73 8.36792 200.224 8.36792C199.049 8.36792 197.955 8.56803 196.945 8.97016C195.933 9.37229 195.057 9.95358 194.314 10.714V8.70716H190.197V30.9672H194.314V23.7118C194.788 24.2263 195.339 24.6494 195.97 24.9772C196.598 25.3069 197.259 25.5642 197.951 25.7491C198.642 25.934 199.389 26.0273 200.196 26.0273C201.743 26.0273 203.146 25.6614 204.405 24.9314C205.664 24.2015 206.659 23.1667 207.391 21.8288C208.123 20.4909 208.489 18.9567 208.489 17.2282C208.489 15.4995 208.123 14.0225 207.391 12.6732C206.659 11.3258 205.657 10.2699 204.39 9.50761L204.387 9.50951ZM203.768 19.8676C203.346 20.6395 202.758 21.2418 202.005 21.6744C201.252 22.1071 200.401 22.3224 199.451 22.3224C198.441 22.3224 197.543 22.1165 196.76 21.705C195.974 21.2933 195.373 20.6967 194.948 19.9134C194.525 19.132 194.314 18.2267 194.314 17.1958C194.314 16.1647 194.53 15.2403 194.964 14.478C195.398 13.7176 196 13.1192 196.775 12.6865C197.549 12.2539 198.441 12.0386 199.451 12.0386C200.401 12.0386 201.251 12.2539 202.005 12.6865C202.758 13.1192 203.346 13.7309 203.768 14.5238C204.191 15.3165 204.402 16.2161 204.402 17.2243C204.402 18.2324 204.191 19.092 203.768 19.8639V19.8676Z"
    fill="black" />
  <path
    d="M226.47 11.7023C225.892 10.6331 225.087 9.80978 224.054 9.23231C223.023 8.65675 221.837 8.36706 220.495 8.36706C218.472 8.36706 216.875 8.88164 215.698 9.91079C215.313 10.2481 214.976 10.6179 214.677 11.0181V2.87256H210.56V25.6586H214.677V15.5807C214.755 15.3747 214.841 15.1727 214.94 14.9746C215.384 14.0903 215.997 13.3889 216.782 12.8744C217.565 12.3598 218.442 12.1025 219.413 12.1025C220.693 12.1025 221.646 12.4474 222.273 13.1374C222.902 13.8273 223.218 14.8107 223.218 16.0857V25.6568H227.335V15.4682C227.335 14.0274 227.046 12.7714 226.467 11.7023H226.47Z"
    fill="black" />
</svg>