<svg xmlns="http://www.w3.org/2000/svg" viewBox="0 0 512 512" role="img" aria-label="Visdom">
  <defs><clipPath id="tile"><rect x="8" y="8" width="496" height="496" rx="116"/></clipPath></defs>
  <rect x="8" y="8" width="496" height="496" rx="116" fill="#ffffff"/>
  <g clip-path="url(#tile)">
    <g transform="translate(-619,-216) scale(1.4)"><path d="M 619.041 224.706 C 603.194 256.681, 591 282.859, 591 284.902 C 591 288.966, 589.740 292.837, 588.564 292.386 C 587.768 292.081, 584.040 300.309, 577.769 316.210 C 556.673 369.709, 556.680 369.652, 566.173 410 C 568.437 419.625, 570.600 427.853, 570.979 428.284 C 571.358 428.715, 573.806 425.603, 576.419 421.369 C 580.629 414.548, 581.045 413.375, 580.069 411.085 C 579.100 408.811, 579.133 408.711, 580.344 410.250 C 581.101 411.212, 581.953 412, 582.237 412 C 583.052 412, 596.136 393.437, 611.699 370.202 L 625.964 348.903 623.621 345.202 C 622.333 343.166, 616.973 334.904, 611.712 326.841 C 606.450 318.779, 601.501 310.904, 600.714 309.341 C 599.075 306.089, 597.725 298.712, 598.902 299.439 C 599.333 299.706, 606.359 309.635, 614.515 321.504 C 626.438 338.857, 629.585 342.832, 630.577 341.792 C 631.256 341.082, 638.202 331.050, 646.014 319.500 C 661.788 296.177, 663.659 293.798, 662.525 298.500 C 662.127 300.150, 661.691 302.400, 661.557 303.500 C 661.422 304.600, 655.166 314.860, 647.656 326.301 C 640.145 337.742, 634 347.713, 634 348.459 C 634 349.730, 648.370 371.609, 667.714 399.789 L 676.150 412.079 680.177 405.789 C 684.930 398.368, 686.927 396.117, 684.504 400.913 C 683.330 403.237, 682.954 405.617, 683.323 408.373 C 684.035 413.677, 683.107 418.255, 681.449 417.619 C 680.746 417.349, 681.595 419.547, 683.335 422.503 L 686.500 427.878 688.242 422.189 C 696.492 395.239, 700.565 373.651, 699.137 364.447 C 697.435 353.476, 687.250 324.866, 675.763 298.789 L 672.366 291.078 670.079 293.289 C 667.835 295.457, 667.803 295.460, 668.410 293.417 C 670.897 285.045, 665.400 271.839, 637.730 219.706 L 629.346 203.911 619.041 224.706 M 543.520 336.150 C 537.201 344.225, 528.993 360.284, 526.474 369.500 C 523.697 379.656, 523.413 400.698, 525.903 411.709 C 532.779 442.107, 546.241 462.630, 588.989 507.881 C 595.857 515.152, 601.783 521.649, 602.158 522.317 C 602.572 523.058, 598.601 527.963, 592.007 534.856 L 581.176 546.179 578.695 537.840 C 577.330 533.253, 575.983 527.700, 575.701 525.500 C 575.420 523.300, 574.134 519.250, 572.845 516.500 L 570.500 511.500 570.190 515.250 C 569.788 520.105, 569.653 520.062, 563.324 513.069 C 560.372 509.807, 555.040 504.817, 551.475 501.980 C 547.910 499.144, 544.812 495.850, 544.590 494.661 C 540.717 473.917, 537.948 467.321, 529.564 458.871 C 520.645 449.879, 507.291 444, 495.790 444 C 490.088 444, 490.190 443.436, 494.373 451.775 C 496.228 455.474, 499.394 462.350, 501.408 467.055 C 508.893 484.541, 519.871 494.793, 535.113 498.528 C 542.125 500.246, 542.363 500.415, 553.961 511.884 C 566.806 524.588, 572.658 534.096, 575.257 546.491 C 576.412 551.998, 576.352 552.404, 573.712 556.861 C 564.967 571.625, 561.024 582.847, 558.452 600.294 L 557.893 604.089 555.196 602.121 C 552.531 600.176, 552.500 600.018, 552.500 588.327 C 552.500 570.298, 548.113 562.061, 530.129 546.325 C 525.526 542.296, 521.363 539, 520.879 539 C 518.624 539, 520.672 564.481, 523.648 573.443 C 527.917 586.301, 534.523 594.136, 548.984 603.490 L 558.691 609.768 559.284 616.849 C 560.372 629.830, 567.591 646.646, 578.471 661.548 C 582.295 666.785, 621.703 708.647, 623 708.850 C 623.643 708.951, 638 687.755, 638 686.704 C 638 686.269, 631.522 679.174, 623.604 670.938 C 590.754 636.768, 582.460 618.911, 588.547 595.460 C 593.654 575.785, 603.872 563.333, 643.500 528.490 C 692.179 485.690, 713.963 459.122, 727.309 426.277 C 739.981 395.092, 735.941 361.069, 716.494 335.203 C 712.086 329.340, 709.581 327.448, 711.808 331.664 C 712.341 332.674, 713.969 338.225, 715.427 344 C 726.422 387.570, 711.290 425.651, 665.353 470.016 C 656.066 478.985, 630.219 501.711, 627.644 503.171 C 624.733 504.821, 569.113 448.012, 559.310 433.376 C 538.568 402.408, 534.664 370.505, 547.457 336.519 C 548.870 332.764, 549.843 329.509, 549.618 329.285 C 549.394 329.061, 546.650 332.150, 543.520 336.150 M 626.450 357.292 C 625.322 359.057, 616.150 372.650, 606.068 387.500 C 595.986 402.350, 587.549 415.175, 587.321 416 C 586.943 417.361, 601.132 463.290, 604.632 472.039 C 605.610 474.482, 609.698 478.892, 616.922 485.296 L 627.747 494.892 640.623 484.068 L 653.500 473.243 662.932 444.789 L 672.364 416.335 668.932 410.901 C 662.188 400.222, 629.891 354.001, 629.202 354.042 C 628.816 354.066, 627.577 355.528, 626.450 357.292 M 578.128 428.764 L 573.757 435.387 575.388 440.444 C 576.691 444.481, 578.946 447.466, 586.580 455.261 C 591.839 460.629, 595.914 464.229, 595.635 463.261 C 595.357 462.292, 594.174 458.125, 593.005 454 C 590.759 446.066, 582.951 421.951, 582.667 422.070 C 582.575 422.109, 580.533 425.121, 578.128 428.764 M 675 424.263 C 675 424.958, 672.187 434.156, 668.750 444.703 C 661.679 466.398, 661.385 466.105, 674.799 450.735 C 684.397 439.738, 684.692 438.477, 679.693 429.750 C 675.769 422.898, 675 421.999, 675 424.263 M 755.143 451.499 C 737.673 459.871, 728 476.140, 728 497.151 C 728 502.587, 727.529 504.756, 725.750 507.502 C 722.615 512.342, 722.377 512.064, 721.658 502.710 C 721.052 494.831, 716.807 477.463, 713.679 470.067 L 712.227 466.635 710.114 470.777 C 708.951 473.056, 708 475.559, 708 476.339 C 708 479.442, 702.690 489.467, 702.035 487.600 C 701.687 486.608, 701.578 491.355, 701.794 498.148 C 702.495 520.307, 697.034 537.726, 684.421 553.554 C 679.555 559.660, 671.212 567.745, 670.681 566.869 C 666.284 559.605, 666.106 558.704, 667.495 550.705 C 669.326 540.161, 673.487 531.836, 680.985 523.709 C 687.830 516.292, 687.974 515.902, 683.403 517.139 C 675.832 519.189, 667.201 530.568, 663.574 543.285 C 661.612 550.164, 661.862 550.256, 655.032 540.139 L 649.619 532.121 639.559 541.782 C 634.027 547.095, 629.616 551.803, 629.758 552.244 C 629.900 552.686, 632.323 556.728, 635.142 561.227 C 643.202 574.087, 648.330 585.278, 646.721 586.496 C 630.566 598.727, 607.509 620.043, 602.199 627.655 L 599.999 630.811 604.964 638.155 C 607.695 642.195, 611.266 647.075, 612.901 649 L 615.873 652.500 619.086 648.500 C 626.209 639.634, 643.565 623.648, 662.500 608.511 C 673.500 599.718, 687.914 587.065, 694.531 580.394 C 712.396 562.383, 718.298 560.026, 733.367 564.884 C 738.390 566.503, 745.650 568.312, 749.500 568.904 C 753.350 569.496, 757.482 570.255, 758.682 570.589 C 761.502 571.376, 761.057 569.256, 756.275 559.111 C 748.064 541.695, 734.619 535.970, 720.912 544.052 C 714.674 547.730, 714.566 547.659, 716.910 541.440 C 718.509 537.197, 719.638 532.583, 721.577 522.361 C 722.308 518.506, 731.020 508.031, 735.318 505.838 C 750.122 498.285, 759.849 479.282, 763.258 451.250 C 763.744 447.254, 764.018 447.246, 755.143 451.499 M 675.469 608.027 C 671.086 611.875, 667.500 615.430, 667.500 615.928 C 667.500 617.336, 666.025 618.473, 664.179 618.487 C 662.692 618.499, 662.540 619.702, 662.851 629.034 C 663.822 658.170, 656.780 674.107, 620.679 724.476 C 584.186 775.394, 574.521 805.348, 583.456 839.830 C 586.907 853.148, 598 876.944, 598 871.029 C 598 870.495, 600.157 865.548, 602.793 860.035 C 605.495 854.383, 607.273 849.452, 606.869 848.730 C 602.893 841.626, 602.066 815.938, 605.413 803.500 C 609.564 788.073, 622.128 767.005, 645.840 735.711 C 672.190 700.937, 682.240 682.062, 687.574 657.334 C 690.081 645.716, 689.831 626.234, 687.012 613.500 C 683.955 599.688, 684.613 600, 675.469 608.027 M 528.159 637.910 C 521.061 640.361, 514.279 647.134, 509.722 656.324 C 506.286 663.252, 502.573 674, 503.616 674 C 503.895 674, 508.258 672.825, 513.312 671.388 C 525.644 667.882, 532.365 664.161, 541.401 655.835 C 549.708 648.181, 550.043 648.111, 557.104 652.566 C 560.902 654.963, 568 662.653, 568 664.371 C 568 664.927, 568.621 664.532, 569.381 663.494 C 570.607 661.817, 570.382 661.054, 567.381 656.690 C 565.521 653.987, 564 651.439, 564 651.027 C 564 650.615, 561.188 648.794, 557.750 646.979 C 554.313 645.164, 549.700 642.473, 547.500 640.998 C 539.676 635.754, 536.069 635.178, 528.159 637.910 M 726 637.886 C 707.037 644.017, 695.143 658.149, 692.483 677.712 C 691.465 685.195, 691.149 685.795, 686.227 689.553 C 682.592 692.328, 676 701.450, 676 703.704 C 676 703.916, 680.198 700.746, 685.330 696.661 C 690.626 692.445, 696.121 688.913, 698.040 688.491 C 712.873 685.233, 723.026 675.013, 731.521 654.791 C 734.129 648.581, 737.113 641.813, 738.152 639.750 L 740.041 636 735.770 636.054 C 733.422 636.083, 729.025 636.908, 726 637.886 M 573.202 673.118 C 567.810 690.394, 566.886 710.956, 570.838 725.748 C 573.285 734.906, 578.812 748.148, 584.256 757.892 L 587.828 764.284 591.025 757.892 C 592.784 754.376, 595.721 749.009, 597.553 745.965 L 600.883 740.430 597.536 731.465 C 593.314 720.156, 591.573 709.330, 592.244 698.567 L 592.768 690.168 589.134 686.834 L 585.500 683.500 588.932 687.235 C 592.266 690.864, 592.655 693.618, 589.458 690.965 C 587.374 689.235, 584.909 684.424, 585.701 683.632 C 586.043 683.291, 584.521 680.871, 582.320 678.255 C 580.118 675.640, 577.688 672.487, 576.918 671.250 C 575.019 668.196, 574.686 668.363, 573.202 673.118 M 662 726.768 C 660.129 729.921, 657.339 734.140, 655.799 736.144 C 652.619 740.284, 652.170 741.888, 654.750 739.890 C 656.167 738.793, 656.136 738.961, 654.589 740.773 C 653.539 742.005, 652.455 742.788, 652.181 742.515 C 651.908 742.241, 651.146 742.464, 650.489 743.009 C 649.566 743.775, 649.621 745.198, 650.731 749.251 C 653.199 758.265, 652.704 777.737, 649.724 788.846 L 647.217 798.192 652.608 808.846 C 655.572 814.706, 657.999 820.063, 657.999 820.750 C 658.001 823.778, 659.994 821.448, 663.329 814.521 C 678.529 782.943, 679.875 756.265, 667.756 726.768 L 665.401 721.036 662 726.768 M 619.527 788.101 C 616.497 794.371, 614.014 800.137, 614.009 800.916 C 614.004 801.695, 617.325 807.995, 621.388 814.916 C 645.143 855.377, 651.139 877.807, 645.859 906.463 C 644.807 912.173, 644.886 914.070, 646.460 920.745 C 647.458 924.979, 648.564 931.831, 648.918 935.971 L 649.561 943.500 652.149 938.500 C 673.599 897.070, 672.514 859.379, 648.596 815.123 C 643.686 806.039, 627.319 779.212, 625.399 777.101 C 625.199 776.882, 622.557 781.832, 619.527 788.101 M 616.554 848.374 C 588.856 897.091, 585.386 928.687, 603.692 965.500 C 609.201 976.579, 609.631 977.046, 609.822 972.166 C 609.907 970.018, 610.917 964.297, 612.068 959.452 C 613.930 951.609, 614.014 950.141, 612.830 946.071 C 612.040 943.356, 611.513 936.627, 611.533 929.500 C 611.576 913.944, 615.280 901.774, 627.363 877.500 L 635.824 860.500 630.801 848.500 C 628.039 841.900, 625.434 836.128, 625.012 835.673 C 624.590 835.217, 620.784 840.933, 616.554 848.374 M 624.284 903.351 C 620.306 915.758, 620.128 916.810, 621.140 922 C 622.774 930.389, 621.567 945.823, 618.088 961 C 611.543 989.560, 612.952 1006.386, 625.153 1045.346 L 628.333 1055.500 631.197 1046.500 C 646.571 998.195, 649.192 954.527, 638.964 917.109 C 636.906 909.580, 630.365 892.104, 629.136 890.851 C 628.786 890.494, 626.603 896.119, 624.284 903.351" fill="#0d1320"/></g>
  </g>
  <rect x="8.75" y="8.75" width="494.5" height="494.5" rx="115.25" fill="none" stroke="#d4d8de" stroke-width="1.5"/>
</svg>
